<svg width="400" height="500" xmlns="http://www.w3.org/2000/svg">
        <rect width="100%" height="100%" fill="#f9f7f3" />
        <circle cx="40" cy="40" r="13.333333333333334" fill="#b8d8be" opacity="0.5" /><circle cx="40" cy="80" r="13.333333333333334" fill="#b8d8be" opacity="0.5" /><circle cx="40" cy="120" r="13.333333333333334" fill="#b8d8be" opacity="0.5" /><circle cx="40" cy="160" r="13.333333333333334" fill="#b8d8be" opacity="0.5" /><circle cx="40" cy="200" r="13.333333333333334" fill="#b8d8be" opacity="0.5" /><circle cx="40" cy="240" r="13.333333333333334" fill="#b8d8be" opacity="0.5" /><circle cx="40" cy="280" r="13.333333333333334" fill="#b8d8be" opacity="0.5" /><circle cx="40" cy="320" r="13.333333333333334" fill="#b8d8be" opacity="0.5" /><circle cx="40" cy="360" r="13.333333333333334" fill="#b8d8be" opacity="0.5" /><circle cx="40" cy="400" r="13.333333333333334" fill="#b8d8be" opacity="0.5" /><circle cx="40" cy="440" r="13.333333333333334" fill="#b8d8be" opacity="0.5" /><circle cx="40" cy="480" r="13.333333333333334" fill="#b8d8be" opacity="0.5" /><circle cx="80" cy="40" r="13.333333333333334" fill="#b8d8be" opacity="0.5" /><circle cx="80" cy="80" r="13.333333333333334" fill="#b8d8be" opacity="0.5" /><circle cx="80" cy="120" r="13.333333333333334" fill="#b8d8be" opacity="0.5" /><circle cx="80" cy="160" r="13.333333333333334" fill="#b8d8be" opacity="0.5" /><circle cx="80" cy="200" r="13.333333333333334" fill="#b8d8be" opacity="0.5" /><circle cx="80" cy="240" r="13.333333333333334" fill="#b8d8be" opacity="0.5" /><circle cx="80" cy="280" r="13.333333333333334" fill="#b8d8be" opacity="0.5" /><circle cx="80" cy="320" r="13.333333333333334" fill="#b8d8be" opacity="0.5" /><circle cx="80" cy="360" r="13.333333333333334" fill="#b8d8be" opacity="0.5" /><circle cx="80" cy="400" r="13.333333333333334" fill="#b8d8be" opacity="0.5" /><circle cx="80" cy="440" r="13.333333333333334" fill="#b8d8be" opacity="0.5" /><circle cx="80" cy="480" r="13.333333333333334" fill="#b8d8be" opacity="0.5" /><circle cx="120" cy="40" r="13.333333333333334" fill="#b8d8be" opacity="0.5" /><circle cx="120" cy="80" r="13.333333333333334" fill="#b8d8be" opacity="0.5" /><circle cx="120" cy="120" r="13.333333333333334" fill="#b8d8be" opacity="0.5" /><circle cx="120" cy="160" r="13.333333333333334" fill="#b8d8be" opacity="0.5" /><circle cx="120" cy="200" r="13.333333333333334" fill="#b8d8be" opacity="0.5" /><circle cx="120" cy="240" r="13.333333333333334" fill="#b8d8be" opacity="0.5" /><circle cx="120" cy="280" r="13.333333333333334" fill="#b8d8be" opacity="0.5" /><circle cx="120" cy="320" r="13.333333333333334" fill="#b8d8be" opacity="0.5" /><circle cx="120" cy="360" r="13.333333333333334" fill="#b8d8be" opacity="0.5" /><circle cx="120" cy="400" r="13.333333333333334" fill="#b8d8be" opacity="0.5" /><circle cx="120" cy="440" r="13.333333333333334" fill="#b8d8be" opacity="0.5" /><circle cx="120" cy="480" r="13.333333333333334" fill="#b8d8be" opacity="0.5" /><circle cx="160" cy="40" r="13.333333333333334" fill="#b8d8be" opacity="0.5" /><circle cx="160" cy="80" r="13.333333333333334" fill="#b8d8be" opacity="0.5" /><circle cx="160" cy="120" r="13.333333333333334" fill="#b8d8be" opacity="0.5" /><circle cx="160" cy="160" r="13.333333333333334" fill="#b8d8be" opacity="0.5" /><circle cx="160" cy="200" r="13.333333333333334" fill="#b8d8be" opacity="0.5" /><circle cx="160" cy="240" r="13.333333333333334" fill="#b8d8be" opacity="0.5" /><circle cx="160" cy="280" r="13.333333333333334" fill="#b8d8be" opacity="0.5" /><circle cx="160" cy="320" r="13.333333333333334" fill="#b8d8be" opacity="0.5" /><circle cx="160" cy="360" r="13.333333333333334" fill="#b8d8be" opacity="0.5" /><circle cx="160" cy="400" r="13.333333333333334" fill="#b8d8be" opacity="0.5" /><circle cx="160" cy="440" r="13.333333333333334" fill="#b8d8be" opacity="0.5" /><circle cx="160" cy="480" r="13.333333333333334" fill="#b8d8be" opacity="0.5" /><circle cx="200" cy="40" r="13.333333333333334" fill="#b8d8be" opacity="0.5" /><circle cx="200" cy="80" r="13.333333333333334" fill="#b8d8be" opacity="0.5" /><circle cx="200" cy="120" r="13.333333333333334" fill="#b8d8be" opacity="0.5" /><circle cx="200" cy="160" r="13.333333333333334" fill="#b8d8be" opacity="0.5" /><circle cx="200" cy="200" r="13.333333333333334" fill="#b8d8be" opacity="0.5" /><circle cx="200" cy="240" r="13.333333333333334" fill="#b8d8be" opacity="0.5" /><circle cx="200" cy="280" r="13.333333333333334" fill="#b8d8be" opacity="0.5" /><circle cx="200" cy="320" r="13.333333333333334" fill="#b8d8be" opacity="0.5" /><circle cx="200" cy="360" r="13.333333333333334" fill="#b8d8be" opacity="0.5" /><circle cx="200" cy="400" r="13.333333333333334" fill="#b8d8be" opacity="0.5" /><circle cx="200" cy="440" r="13.333333333333334" fill="#b8d8be" opacity="0.5" /><circle cx="200" cy="480" r="13.333333333333334" fill="#b8d8be" opacity="0.5" /><circle cx="240" cy="40" r="13.333333333333334" fill="#b8d8be" opacity="0.5" /><circle cx="240" cy="80" r="13.333333333333334" fill="#b8d8be" opacity="0.5" /><circle cx="240" cy="120" r="13.333333333333334" fill="#b8d8be" opacity="0.5" /><circle cx="240" cy="160" r="13.333333333333334" fill="#b8d8be" opacity="0.5" /><circle cx="240" cy="200" r="13.333333333333334" fill="#b8d8be" opacity="0.5" /><circle cx="240" cy="240" r="13.333333333333334" fill="#b8d8be" opacity="0.5" /><circle cx="240" cy="280" r="13.333333333333334" fill="#b8d8be" opacity="0.5" /><circle cx="240" cy="320" r="13.333333333333334" fill="#b8d8be" opacity="0.5" /><circle cx="240" cy="360" r="13.333333333333334" fill="#b8d8be" opacity="0.5" /><circle cx="240" cy="400" r="13.333333333333334" fill="#b8d8be" opacity="0.5" /><circle cx="240" cy="440" r="13.333333333333334" fill="#b8d8be" opacity="0.5" /><circle cx="240" cy="480" r="13.333333333333334" fill="#b8d8be" opacity="0.5" /><circle cx="280" cy="40" r="13.333333333333334" fill="#b8d8be" opacity="0.5" /><circle cx="280" cy="80" r="13.333333333333334" fill="#b8d8be" opacity="0.5" /><circle cx="280" cy="120" r="13.333333333333334" fill="#b8d8be" opacity="0.5" /><circle cx="280" cy="160" r="13.333333333333334" fill="#b8d8be" opacity="0.5" /><circle cx="280" cy="200" r="13.333333333333334" fill="#b8d8be" opacity="0.5" /><circle cx="280" cy="240" r="13.333333333333334" fill="#b8d8be" opacity="0.5" /><circle cx="280" cy="280" r="13.333333333333334" fill="#b8d8be" opacity="0.5" /><circle cx="280" cy="320" r="13.333333333333334" fill="#b8d8be" opacity="0.5" /><circle cx="280" cy="360" r="13.333333333333334" fill="#b8d8be" opacity="0.5" /><circle cx="280" cy="400" r="13.333333333333334" fill="#b8d8be" opacity="0.5" /><circle cx="280" cy="440" r="13.333333333333334" fill="#b8d8be" opacity="0.5" /><circle cx="280" cy="480" r="13.333333333333334" fill="#b8d8be" opacity="0.5" /><circle cx="320" cy="40" r="13.333333333333334" fill="#b8d8be" opacity="0.5" /><circle cx="320" cy="80" r="13.333333333333334" fill="#b8d8be" opacity="0.5" /><circle cx="320" cy="120" r="13.333333333333334" fill="#b8d8be" opacity="0.5" /><circle cx="320" cy="160" r="13.333333333333334" fill="#b8d8be" opacity="0.5" /><circle cx="320" cy="200" r="13.333333333333334" fill="#b8d8be" opacity="0.5" /><circle cx="320" cy="240" r="13.333333333333334" fill="#b8d8be" opacity="0.5" /><circle cx="320" cy="280" r="13.333333333333334" fill="#b8d8be" opacity="0.5" /><circle cx="320" cy="320" r="13.333333333333334" fill="#b8d8be" opacity="0.5" /><circle cx="320" cy="360" r="13.333333333333334" fill="#b8d8be" opacity="0.5" /><circle cx="320" cy="400" r="13.333333333333334" fill="#b8d8be" opacity="0.5" /><circle cx="320" cy="440" r="13.333333333333334" fill="#b8d8be" opacity="0.5" /><circle cx="320" cy="480" r="13.333333333333334" fill="#b8d8be" opacity="0.5" /><circle cx="360" cy="40" r="13.333333333333334" fill="#b8d8be" opacity="0.5" /><circle cx="360" cy="80" r="13.333333333333334" fill="#b8d8be" opacity="0.5" /><circle cx="360" cy="120" r="13.333333333333334" fill="#b8d8be" opacity="0.5" /><circle cx="360" cy="160" r="13.333333333333334" fill="#b8d8be" opacity="0.5" /><circle cx="360" cy="200" r="13.333333333333334" fill="#b8d8be" opacity="0.5" /><circle cx="360" cy="240" r="13.333333333333334" fill="#b8d8be" opacity="0.5" /><circle cx="360" cy="280" r="13.333333333333334" fill="#b8d8be" opacity="0.5" /><circle cx="360" cy="320" r="13.333333333333334" fill="#b8d8be" opacity="0.5" /><circle cx="360" cy="360" r="13.333333333333334" fill="#b8d8be" opacity="0.5" /><circle cx="360" cy="400" r="13.333333333333334" fill="#b8d8be" opacity="0.5" /><circle cx="360" cy="440" r="13.333333333333334" fill="#b8d8be" opacity="0.5" /><circle cx="360" cy="480" r="13.333333333333334" fill="#b8d8be" opacity="0.5" />
        <text x="50%" y="50%" font-family="Arial, sans-serif" font-size="26.666666666666668px" fill="#7fb285" text-anchor="middle" dominant-baseline="middle">groom</text>
    </svg>