<svg width="800" height="500" xmlns="http://www.w3.org/2000/svg">
        <rect width="100%" height="100%" fill="#f9f7f3" />
        <line x1="0" y1="25" x2="800" y2="25" stroke="#b8d8be" stroke-width="2" opacity="0.3" /><line x1="0" y1="50" x2="800" y2="50" stroke="#b8d8be" stroke-width="2" opacity="0.3" /><line x1="0" y1="75" x2="800" y2="75" stroke="#b8d8be" stroke-width="2" opacity="0.3" /><line x1="0" y1="100" x2="800" y2="100" stroke="#b8d8be" stroke-width="2" opacity="0.3" /><line x1="0" y1="125" x2="800" y2="125" stroke="#b8d8be" stroke-width="2" opacity="0.3" /><line x1="0" y1="150" x2="800" y2="150" stroke="#b8d8be" stroke-width="2" opacity="0.3" /><line x1="0" y1="175" x2="800" y2="175" stroke="#b8d8be" stroke-width="2" opacity="0.3" /><line x1="0" y1="200" x2="800" y2="200" stroke="#b8d8be" stroke-width="2" opacity="0.3" /><line x1="0" y1="225" x2="800" y2="225" stroke="#b8d8be" stroke-width="2" opacity="0.3" /><line x1="0" y1="250" x2="800" y2="250" stroke="#b8d8be" stroke-width="2" opacity="0.3" /><line x1="0" y1="275" x2="800" y2="275" stroke="#b8d8be" stroke-width="2" opacity="0.3" /><line x1="0" y1="300" x2="800" y2="300" stroke="#b8d8be" stroke-width="2" opacity="0.3" /><line x1="0" y1="325" x2="800" y2="325" stroke="#b8d8be" stroke-width="2" opacity="0.3" /><line x1="0" y1="350" x2="800" y2="350" stroke="#b8d8be" stroke-width="2" opacity="0.3" /><line x1="0" y1="375" x2="800" y2="375" stroke="#b8d8be" stroke-width="2" opacity="0.3" /><line x1="0" y1="400" x2="800" y2="400" stroke="#b8d8be" stroke-width="2" opacity="0.3" /><line x1="0" y1="425" x2="800" y2="425" stroke="#b8d8be" stroke-width="2" opacity="0.3" /><line x1="0" y1="450" x2="800" y2="450" stroke="#b8d8be" stroke-width="2" opacity="0.3" /><line x1="0" y1="475" x2="800" y2="475" stroke="#b8d8be" stroke-width="2" opacity="0.3" />
        <text x="50%" y="50%" font-family="Arial, sans-serif" font-size="33.333333333333336px" fill="#d782a3" text-anchor="middle" dominant-baseline="middle">venue reception</text>
    </svg>